<?xml version="1.0" standalone="no"?>
<svg xmlns:xlink="http://www.w3.org/1999/xlink" id="wave" style="transform:rotate(180deg); transition: 0.3s" viewBox="0 0 1440 400" version="1.1" xmlns="http://www.w3.org/2000/svg"><defs><linearGradient id="sw-gradient-0" x1="0" x2="0" y1="1" y2="0"><stop stop-color="rgba(131, 58, 180, 1)" offset="0%"/><stop stop-color="rgba(253, 29, 29, 1)" offset="100%"/></linearGradient></defs><path style="transform:translate(0, 0px); opacity:1" fill="url(#sw-gradient-0)" d="M0,0L40,33.3C80,67,160,133,240,186.7C320,240,400,280,480,280C560,280,640,240,720,226.7C800,213,880,227,960,206.7C1040,187,1120,133,1200,100C1280,67,1360,53,1440,80C1520,107,1600,173,1680,180C1760,187,1840,133,1920,100C2000,67,2080,53,2160,93.3C2240,133,2320,227,2400,260C2480,293,2560,267,2640,220C2720,173,2800,107,2880,73.3C2960,40,3040,40,3120,46.7C3200,53,3280,67,3360,60C3440,53,3520,27,3600,26.7C3680,27,3760,53,3840,100C3920,147,4000,213,4080,260C4160,307,4240,333,4320,293.3C4400,253,4480,147,4560,146.7C4640,147,4720,253,4800,253.3C4880,253,4960,147,5040,140C5120,133,5200,227,5280,266.7C5360,307,5440,293,5520,246.7C5600,200,5680,120,5720,80L5760,40L5760,400L5720,400C5680,400,5600,400,5520,400C5440,400,5360,400,5280,400C5200,400,5120,400,5040,400C4960,400,4880,400,4800,400C4720,400,4640,400,4560,400C4480,400,4400,400,4320,400C4240,400,4160,400,4080,400C4000,400,3920,400,3840,400C3760,400,3680,400,3600,400C3520,400,3440,400,3360,400C3280,400,3200,400,3120,400C3040,400,2960,400,2880,400C2800,400,2720,400,2640,400C2560,400,2480,400,2400,400C2320,400,2240,400,2160,400C2080,400,2000,400,1920,400C1840,400,1760,400,1680,400C1600,400,1520,400,1440,400C1360,400,1280,400,1200,400C1120,400,1040,400,960,400C880,400,800,400,720,400C640,400,560,400,480,400C400,400,320,400,240,400C160,400,80,400,40,400L0,400Z"/><defs><linearGradient id="sw-gradient-1" x1="0" x2="0" y1="1" y2="0"><stop stop-color="rgba(0, 0, 0, 1)" offset="0%"/><stop stop-color="rgba(253, 29, 29, 1)" offset="100%"/></linearGradient></defs><path style="transform:translate(0, 50px); opacity:0.9" fill="url(#sw-gradient-1)" d="M0,0L40,33.3C80,67,160,133,240,166.7C320,200,400,200,480,180C560,160,640,120,720,86.7C800,53,880,27,960,20C1040,13,1120,27,1200,73.3C1280,120,1360,200,1440,233.3C1520,267,1600,253,1680,213.3C1760,173,1840,107,1920,100C2000,93,2080,147,2160,173.3C2240,200,2320,200,2400,213.3C2480,227,2560,253,2640,266.7C2720,280,2800,280,2880,293.3C2960,307,3040,333,3120,286.7C3200,240,3280,120,3360,106.7C3440,93,3520,187,3600,213.3C3680,240,3760,200,3840,193.3C3920,187,4000,213,4080,206.7C4160,200,4240,160,4320,160C4400,160,4480,200,4560,226.7C4640,253,4720,267,4800,280C4880,293,4960,307,5040,313.3C5120,320,5200,320,5280,313.3C5360,307,5440,293,5520,260C5600,227,5680,173,5720,146.7L5760,120L5760,400L5720,400C5680,400,5600,400,5520,400C5440,400,5360,400,5280,400C5200,400,5120,400,5040,400C4960,400,4880,400,4800,400C4720,400,4640,400,4560,400C4480,400,4400,400,4320,400C4240,400,4160,400,4080,400C4000,400,3920,400,3840,400C3760,400,3680,400,3600,400C3520,400,3440,400,3360,400C3280,400,3200,400,3120,400C3040,400,2960,400,2880,400C2800,400,2720,400,2640,400C2560,400,2480,400,2400,400C2320,400,2240,400,2160,400C2080,400,2000,400,1920,400C1840,400,1760,400,1680,400C1600,400,1520,400,1440,400C1360,400,1280,400,1200,400C1120,400,1040,400,960,400C880,400,800,400,720,400C640,400,560,400,480,400C400,400,320,400,240,400C160,400,80,400,40,400L0,400Z"/></svg>